<svg width="123" height="24" viewBox="0 0 123 24" fill="none" xmlns="http://www.w3.org/2000/svg">
<path d="M0 18.2727V0.818115H6.68182C7.94318 0.818115 8.99148 1.01698 9.8267 1.41471C10.6676 1.80675 11.2955 2.34368 11.7102 3.0255C12.1307 3.70732 12.3409 4.48005 12.3409 5.34368C12.3409 6.05391 12.2045 6.66187 11.9318 7.16755C11.6591 7.66755 11.2926 8.0738 10.8324 8.3863C10.3722 8.6988 9.85795 8.92323 9.28977 9.05959V9.23005C9.90909 9.26414 10.5028 9.45448 11.071 9.80107C11.6449 10.142 12.1136 10.6249 12.4773 11.2499C12.8409 11.8749 13.0227 12.6306 13.0227 13.517C13.0227 14.4204 12.804 15.2329 12.3665 15.9545C11.929 16.6704 11.2699 17.2357 10.3892 17.6505C9.50852 18.0653 8.40057 18.2727 7.06534 18.2727H0ZM3.16193 15.6306H6.5625C7.71023 15.6306 8.53693 15.4119 9.04261 14.9744C9.55398 14.5312 9.80966 13.963 9.80966 13.2698C9.80966 12.7528 9.68182 12.2869 9.42614 11.8721C9.17045 11.4516 8.80682 11.1221 8.33523 10.8835C7.86364 10.6391 7.30114 10.517 6.64773 10.517H3.16193V15.6306ZM3.16193 8.24141H6.28977C6.83523 8.24141 7.3267 8.14198 7.7642 7.94312C8.2017 7.73857 8.54545 7.45164 8.79545 7.08232C9.05114 6.70732 9.17898 6.26414 9.17898 5.75278C9.17898 5.07664 8.94034 4.51982 8.46307 4.08232C7.99148 3.64482 7.28977 3.42607 6.35795 3.42607H3.16193V8.24141Z" fill="#02010A"/>
<path d="M15.6371 18.2727V5.18175H18.6286V7.36357H18.7649C19.0036 6.60789 19.4126 6.0255 19.9922 5.61641C20.5774 5.20164 21.245 4.99425 21.995 4.99425C22.1655 4.99425 22.3558 5.00277 22.5661 5.01982C22.782 5.03118 22.9609 5.05107 23.103 5.07948V7.91755C22.9723 7.87209 22.7649 7.83232 22.4808 7.79823C22.2024 7.75846 21.9325 7.73857 21.6712 7.73857C21.1087 7.73857 20.603 7.86073 20.1541 8.10505C19.7109 8.34368 19.3615 8.67607 19.1058 9.10221C18.8501 9.52834 18.7223 10.0198 18.7223 10.5766V18.2727H15.6371Z" fill="#02010A"/>
<path d="M30.4091 18.5283C29.0966 18.5283 27.9631 18.2556 27.0085 17.7102C26.0597 17.159 25.3295 16.3806 24.8182 15.3749C24.3068 14.3636 24.0511 13.1732 24.0511 11.8039C24.0511 10.4573 24.3068 9.2755 24.8182 8.25846C25.3352 7.23573 26.0568 6.44027 26.983 5.87209C27.9091 5.29823 28.9972 5.0113 30.2472 5.0113C31.054 5.0113 31.8153 5.14198 32.5312 5.40334C33.2528 5.65902 33.8892 6.05675 34.4403 6.59653C34.9972 7.1363 35.4347 7.8238 35.7528 8.65903C36.071 9.48857 36.2301 10.4772 36.2301 11.6249V12.571H25.5V10.4914H33.2727C33.267 9.9005 33.1392 9.37493 32.8892 8.91471C32.6392 8.4488 32.2898 8.08232 31.8409 7.81528C31.3977 7.54823 30.8807 7.41471 30.2898 7.41471C29.6591 7.41471 29.1051 7.56812 28.6278 7.87493C28.1506 8.17607 27.7784 8.5738 27.5114 9.06812C27.25 9.55675 27.1165 10.0937 27.1108 10.6789V12.4943C27.1108 13.2556 27.25 13.909 27.5284 14.4545C27.8068 14.9943 28.196 15.409 28.696 15.6988C29.196 15.9829 29.7812 16.1249 30.4517 16.1249C30.9006 16.1249 31.3068 16.0624 31.6705 15.9374C32.0341 15.8068 32.3494 15.6164 32.6165 15.3664C32.8835 15.1164 33.0852 14.8068 33.2216 14.4374L36.1023 14.7613C35.9205 15.5227 35.5739 16.1874 35.0625 16.7556C34.5568 17.3181 33.9091 17.7556 33.1193 18.0681C32.3295 18.3749 31.4261 18.5283 30.4091 18.5283Z" fill="#02010A"/>
<path d="M49.1868 8.64198L46.3743 8.9488C46.2947 8.66471 46.1555 8.39766 45.9567 8.14766C45.7635 7.89766 45.5021 7.69596 45.1726 7.54255C44.843 7.38914 44.4396 7.31243 43.9624 7.31243C43.3203 7.31243 42.7805 7.45164 42.343 7.73005C41.9112 8.00846 41.6982 8.36925 41.7038 8.81243C41.6982 9.19312 41.8374 9.50278 42.1214 9.74141C42.4112 9.98005 42.8885 10.1761 43.5533 10.3295L45.7862 10.8068C47.0249 11.0738 47.9453 11.4971 48.5476 12.0766C49.1555 12.6562 49.4624 13.4147 49.468 14.3522C49.4624 15.1761 49.2209 15.9033 48.7436 16.534C48.272 17.159 47.6158 17.6477 46.7749 17.9999C45.9339 18.3522 44.968 18.5283 43.8771 18.5283C42.2749 18.5283 40.9851 18.1931 40.0078 17.5227C39.0305 16.8465 38.4482 15.9062 38.2607 14.7016L41.2692 14.4119C41.4055 15.0028 41.6953 15.4488 42.1385 15.7499C42.5817 16.0511 43.1584 16.2016 43.8686 16.2016C44.6016 16.2016 45.1896 16.0511 45.6328 15.7499C46.0817 15.4488 46.3061 15.0766 46.3061 14.6335C46.3061 14.2585 46.1612 13.9488 45.8714 13.7045C45.5874 13.4602 45.1442 13.2727 44.5419 13.142L42.3089 12.6732C41.0533 12.4119 40.1243 11.9715 39.522 11.3522C38.9197 10.7272 38.6214 9.93743 38.6271 8.98289C38.6214 8.17607 38.8402 7.47721 39.2834 6.8863C39.7322 6.28971 40.3544 5.82948 41.1499 5.50562C41.951 5.17607 42.8743 5.0113 43.9197 5.0113C45.4538 5.0113 46.6612 5.338 47.5419 5.99141C48.4283 6.64482 48.9766 7.52834 49.1868 8.64198Z" fill="#02010A"/>
<path d="M55.0973 10.6022V18.2727H52.0121V0.818115H55.0291V7.40618H55.1825C55.4893 6.66755 55.9638 6.08516 56.6058 5.65903C57.2536 5.22721 58.0774 5.0113 59.0774 5.0113C59.9865 5.0113 60.7791 5.20164 61.4553 5.58232C62.1314 5.963 62.6541 6.51982 63.0234 7.25278C63.3984 7.98573 63.5859 8.88062 63.5859 9.93743V18.2727H60.5007V10.4147C60.5007 9.53402 60.2734 8.84937 59.8189 8.36073C59.37 7.86641 58.7393 7.61925 57.9268 7.61925C57.3814 7.61925 56.8928 7.73857 56.4609 7.97721C56.0348 8.21016 55.6996 8.54823 55.4553 8.99141C55.2166 9.43459 55.0973 9.97152 55.0973 10.6022Z" fill="#02010A"/>
<path d="M72.4411 18.5283C71.1626 18.5283 70.0547 18.2471 69.1172 17.6846C68.1797 17.1221 67.4524 16.3352 66.9354 15.3238C66.424 14.3124 66.1683 13.1306 66.1683 11.7783C66.1683 10.4261 66.424 9.24141 66.9354 8.22437C67.4524 7.20732 68.1797 6.41755 69.1172 5.85505C70.0547 5.29255 71.1626 5.0113 72.4411 5.0113C73.7195 5.0113 74.8274 5.29255 75.7649 5.85505C76.7024 6.41755 77.4268 7.20732 77.9382 8.22437C78.4553 9.24141 78.7138 10.4261 78.7138 11.7783C78.7138 13.1306 78.4553 14.3124 77.9382 15.3238C77.4268 16.3352 76.7024 17.1221 75.7649 17.6846C74.8274 18.2471 73.7195 18.5283 72.4411 18.5283ZM72.4581 16.0568C73.1513 16.0568 73.7308 15.8664 74.1967 15.4857C74.6627 15.0994 75.0092 14.5823 75.2365 13.9346C75.4695 13.2869 75.5859 12.5653 75.5859 11.7698C75.5859 10.9687 75.4695 10.2443 75.2365 9.59653C75.0092 8.94312 74.6627 8.42323 74.1967 8.03687C73.7308 7.6505 73.1513 7.45732 72.4581 7.45732C71.7479 7.45732 71.157 7.6505 70.6854 8.03687C70.2195 8.42323 69.87 8.94312 69.6371 9.59653C69.4098 10.2443 69.2962 10.9687 69.2962 11.7698C69.2962 12.5653 69.4098 13.2869 69.6371 13.9346C69.87 14.5823 70.2195 15.0994 70.6854 15.4857C71.157 15.8664 71.7479 16.0568 72.4581 16.0568Z" fill="#02010A"/>
<path d="M81.3324 23.1818V5.18175H84.3665V7.34653H84.5455C84.7045 7.02834 84.929 6.69027 85.2188 6.33232C85.5085 5.96868 85.9006 5.65902 86.3949 5.40334C86.8892 5.14198 87.5199 5.0113 88.2869 5.0113C89.2983 5.0113 90.2102 5.26982 91.0227 5.78687C91.8409 6.29823 92.4886 7.05675 92.9659 8.06243C93.4489 9.06243 93.6903 10.2897 93.6903 11.7443C93.6903 13.1818 93.4545 14.4033 92.983 15.409C92.5114 16.4147 91.8693 17.1818 91.0568 17.7102C90.2443 18.2386 89.3239 18.5028 88.2955 18.5028C87.5455 18.5028 86.9233 18.3778 86.429 18.1278C85.9347 17.8778 85.5369 17.5766 85.2358 17.2244C84.9403 16.8664 84.7102 16.5283 84.5455 16.2102H84.4176V23.1818H81.3324ZM84.358 11.7272C84.358 12.5738 84.4773 13.3153 84.7159 13.9516C84.9602 14.588 85.3097 15.0852 85.7642 15.4431C86.2244 15.7954 86.7812 15.9715 87.4347 15.9715C88.1165 15.9715 88.6875 15.7897 89.1477 15.4261C89.608 15.0568 89.9545 14.5539 90.1875 13.9175C90.4261 13.2755 90.5455 12.5454 90.5455 11.7272C90.5455 10.9147 90.429 10.1931 90.196 9.56243C89.9631 8.93175 89.6165 8.43743 89.1562 8.07948C88.696 7.72152 88.1222 7.54255 87.4347 7.54255C86.7756 7.54255 86.2159 7.71584 85.7557 8.06243C85.2955 8.40902 84.946 8.89482 84.7074 9.51982C84.4744 10.1448 84.358 10.8806 84.358 11.7272Z" fill="#02010A"/>
<path d="M102.128 18.5283C100.815 18.5283 99.6818 18.2556 98.7273 17.7102C97.7784 17.159 97.0483 16.3806 96.5369 15.3749C96.0256 14.3636 95.7699 13.1732 95.7699 11.8039C95.7699 10.4573 96.0256 9.2755 96.5369 8.25846C97.054 7.23573 97.7756 6.44027 98.7017 5.87209C99.6278 5.29823 100.716 5.0113 101.966 5.0113C102.773 5.0113 103.534 5.14198 104.25 5.40334C104.972 5.65902 105.608 6.05675 106.159 6.59653C106.716 7.1363 107.153 7.8238 107.472 8.65903C107.79 9.48857 107.949 10.4772 107.949 11.6249V12.571H97.2188V10.4914H104.991C104.986 9.9005 104.858 9.37493 104.608 8.91471C104.358 8.4488 104.009 8.08232 103.56 7.81528C103.116 7.54823 102.599 7.41471 102.009 7.41471C101.378 7.41471 100.824 7.56812 100.347 7.87493C99.8693 8.17607 99.4972 8.5738 99.2301 9.06812C98.9688 9.55675 98.8352 10.0937 98.8296 10.6789V12.4943C98.8296 13.2556 98.9688 13.909 99.2472 14.4545C99.5256 14.9943 99.9148 15.409 100.415 15.6988C100.915 15.9829 101.5 16.1249 102.17 16.1249C102.619 16.1249 103.026 16.0624 103.389 15.9374C103.753 15.8068 104.068 15.6164 104.335 15.3664C104.602 15.1164 104.804 14.8068 104.94 14.4374L107.821 14.7613C107.639 15.5227 107.293 16.1874 106.781 16.7556C106.276 17.3181 105.628 17.7556 104.838 18.0681C104.048 18.3749 103.145 18.5283 102.128 18.5283Z" fill="#02010A"/>
<path d="M116.354 18.5283C115.042 18.5283 113.908 18.2556 112.954 17.7102C112.005 17.159 111.275 16.3806 110.763 15.3749C110.252 14.3636 109.996 13.1732 109.996 11.8039C109.996 10.4573 110.252 9.2755 110.763 8.25846C111.281 7.23573 112.002 6.44027 112.928 5.87209C113.854 5.29823 114.942 5.0113 116.192 5.0113C116.999 5.0113 117.761 5.14198 118.477 5.40334C119.198 5.65902 119.835 6.05675 120.386 6.59653C120.942 7.1363 121.38 7.8238 121.698 8.65903C122.016 9.48857 122.175 10.4772 122.175 11.6249V12.571H111.445V10.4914H119.218C119.212 9.9005 119.085 9.37493 118.835 8.91471C118.585 8.4488 118.235 8.08232 117.786 7.81528C117.343 7.54823 116.826 7.41471 116.235 7.41471C115.604 7.41471 115.05 7.56812 114.573 7.87493C114.096 8.17607 113.724 8.5738 113.457 9.06812C113.195 9.55675 113.062 10.0937 113.056 10.6789V12.4943C113.056 13.2556 113.195 13.909 113.474 14.4545C113.752 14.9943 114.141 15.409 114.641 15.6988C115.141 15.9829 115.727 16.1249 116.397 16.1249C116.846 16.1249 117.252 16.0624 117.616 15.9374C117.979 15.8068 118.295 15.6164 118.562 15.3664C118.829 15.1164 119.031 14.8068 119.167 14.4374L122.048 14.7613C121.866 15.5227 121.519 16.1874 121.008 16.7556C120.502 17.3181 119.854 17.7556 119.065 18.0681C118.275 18.3749 117.371 18.5283 116.354 18.5283Z" fill="#02010A"/>
</svg>
